# xmcd
#
# Track frame offsets: 
#        150
#        13196
#        27438
#        41904
#        54529
#        67666
#        82486
#        96010
#        109928
#        123201
#        135746
#        150300
#        163693
#        175976
#        189947
#
# Disc length: 2697 seconds
#
# Revision: 3
# Processed by: cddbd v1.5.2PL0 Copyright (c) Steve Scherf et al.
# Submitted via: ExactAudioCopy v0.95b3
#
DISCID=c50a870f
DTITLE=Various Artist - Blues in History II 2
DYEAR=1900
DGENRE=Blues
TTITLE0=Lonnie Johnson - Mean Old Bug Blues
TTITLE1=Blind Willie Johnson - Nobody's Fault But Mine
TTITLE2=Barbeque Bob - Barbeque Blues
TTITLE3=Champion Jack Dupree - Warehouse Man Blues
TTITLE4=Leroy Carr - Mean Mistreater Mama
TTITLE5=Lonnie Johnson - Four Hands are Better than Two
TTITLE6=Blind Boy Fuller - My Brownskin Sugar Plum
TTITLE7=Leroy Carr - Midnight Hour Blues
TTITLE8=Tampa Red - You Can't Get That Stuff No More
TTITLE9=Champion Jack Dupree - Gamblin Man Blues
TTITLE10=Blind Boy Fuller - Baby You Gota Change Your Mind
TTITLE11=Leroy Carr - Good Woman Blues
TTITLE12=Roosevelt Sykes - 15c a Day
TTITLE13=Blind Boy Fuller - I'm a Rattlesnakin' Daddy
TTITLE14=Lonnie Johnson - Mr. Johnson's Swing
EXTD=Nothing But The Blues: 20 double CD's depicting the history of th
EXTD=e blues.  This is the second CD # 2, id 20.1950-HI.\nCopyright th
EXTD=is collection: Music Alliance AG, Gerliswilstrasse 44, CH-6021 Em
EXTD=menbrücke, Switzerland.\n
EXTT0=
EXTT1=
EXTT2=
EXTT3=
EXTT4=
EXTT5=
EXTT6=
EXTT7=
EXTT8=
EXTT9=
EXTT10=
EXTT11=
EXTT12=
EXTT13=
EXTT14=
PLAYORDER=
